<svg xmlns="http://www.w3.org/2000/svg" viewBox="0 0 32 32" aria-hidden="true" role="presentation" focusable="false" style="display: block; height: 24px; width: 24px; fill: currentcolor;"><path d="m11 15.24 2 2v1.54l-.43.3a6 6 0 1 0 9.11 6.85l1.54 1.53a8 8 0 1 1-12.47-9.5l.25-.2v-2.52zM3.7 2.3l26 26-1.4 1.42-26-26 1.4-1.42zM15 19.24l5 5a4 4 0 1 1-5-4.11v-.89zM16 22a2 2 0 1 0 0 4 2 2 0 0 0 0-4zm0-22a5 5 0 0 1 5 4.78v11.98l-2-2V11h-3.76l-.24-.24V9h4V7h-4V5h4a3 3 0 0 0-6-.18v3.94l-2-2V5A5 5 0 0 1 15.56.02l.22-.01L16 0z"></path></svg>