<svg width="75" height="24" viewBox="0 0 75 24" fill="none" xmlns="http://www.w3.org/2000/svg">
<path d="M22.1988 16.5685C22.0949 16.286 21.9734 16.0126 21.8578 15.7593C21.6799 15.3697 21.4935 14.9794 21.3133 14.6021L21.299 14.5721C19.6915 11.2017 17.966 7.7851 16.1708 4.41744L16.0945 4.27445C15.9114 3.93056 15.7221 3.57498 15.5278 3.2256C15.2974 2.78344 15.0178 2.36685 14.694 1.98322C14.3296 1.56224 13.8739 1.22367 13.3593 0.991374C12.8447 0.759081 12.2836 0.638725 11.7156 0.638794C11.1476 0.638863 10.5866 0.759355 10.072 0.991774C9.55746 1.22419 9.1019 1.56288 8.73756 1.98395C8.41415 2.36767 8.13474 2.78416 7.90427 3.2261C7.70829 3.57862 7.5172 3.9375 7.33242 4.28456L7.26165 4.41741C5.4663 7.78531 3.74089 11.2019 2.13335 14.5721L2.10992 14.6211C1.9328 14.9923 1.74967 15.3761 1.57471 15.7592C1.4591 16.0123 1.33776 16.2854 1.23369 16.5686C0.935597 17.3403 0.84061 18.1714 0.957262 18.9873C1.08097 19.8119 1.42542 20.591 1.95651 21.2473C2.48759 21.9036 3.18688 22.4145 3.98512 22.7293C4.58804 22.9655 5.23271 23.0862 5.88328 23.0848C6.08764 23.0847 6.29183 23.0732 6.49482 23.0503C7.31764 22.9488 8.11121 22.6896 8.82899 22.2879C9.77053 21.7758 10.7004 21.0252 11.7162 19.9527C12.732 21.0252 13.6619 21.7758 14.6034 22.2879C15.3212 22.6897 16.1148 22.9488 16.9376 23.0503C17.1406 23.0732 17.3448 23.0847 17.5492 23.0848C18.1997 23.0862 18.8442 22.9655 19.4472 22.7293C20.2454 22.4145 20.9447 21.9036 21.4759 21.2473C22.007 20.591 22.3515 19.8119 22.4752 18.9873C22.5917 18.1714 22.4967 17.3402 22.1988 16.5685ZM11.7162 17.7377C10.4587 16.1945 9.65178 14.7614 9.36865 13.56C9.25266 13.1098 9.22528 12.6426 9.28795 12.1826C9.33743 11.8454 9.46537 11.5234 9.66214 11.2409C9.90427 10.9369 10.2154 10.6907 10.5716 10.5213C10.9277 10.3519 11.3194 10.2638 11.7163 10.2638C12.1134 10.2639 12.5049 10.352 12.8611 10.5215C13.2173 10.6909 13.5283 10.9371 13.7705 11.2411C13.9672 11.5238 14.0952 11.8457 14.1447 12.183C14.2072 12.6432 14.1797 13.1106 14.0635 13.5609C13.7801 14.7622 12.9734 16.1948 11.7162 17.7377ZM21.0065 18.7842C20.92 19.3607 20.6791 19.9054 20.3078 20.3643C19.9364 20.8233 19.4475 21.1805 18.8893 21.4006C18.3249 21.6195 17.7125 21.6971 17.1088 21.6261C16.4813 21.5479 15.8766 21.3479 15.3311 21.0383C14.493 20.5824 13.6446 19.8826 12.69 18.856C14.2097 17.0416 15.1587 15.3693 15.5101 13.8798C15.6683 13.2534 15.7025 12.6038 15.6112 11.9652C15.5283 11.4151 15.3173 10.8903 14.9942 10.4304C14.6157 9.93417 14.1218 9.53077 13.5525 9.25279C12.9832 8.97481 12.3543 8.82996 11.7163 8.82996C11.0785 8.82996 10.4495 8.97474 9.88014 9.25265C9.31077 9.53056 8.81696 9.93389 8.43842 10.4301C8.11535 10.8899 7.90441 11.4145 7.82145 11.9645C7.73005 12.6029 7.76414 13.2522 7.92194 13.8783C8.27309 15.3685 9.22216 17.0412 10.7424 18.8561C9.78777 19.8826 8.9394 20.5824 8.10131 21.0383C7.55576 21.3479 6.9511 21.5479 6.32361 21.6261C5.7199 21.6971 5.10742 21.6195 4.54301 21.4006C3.98488 21.1805 3.49593 20.8233 3.12461 20.3644C2.75329 19.9054 2.51247 19.3607 2.42601 18.7842C2.34284 18.1981 2.41362 17.6013 2.63181 17.0486C2.71475 16.8229 2.81181 16.6014 2.93205 16.3382C3.10216 15.9659 3.28268 15.5875 3.4573 15.2215L3.48075 15.1724C5.0793 11.821 6.79515 8.42348 8.58071 5.07394L8.65178 4.94059C8.83355 4.59911 9.02155 4.24605 9.21122 3.9049C9.39263 3.55327 9.61223 3.22128 9.8663 2.91454C10.0914 2.65124 10.3739 2.43925 10.6937 2.29372C11.0134 2.14819 11.3625 2.07271 11.7159 2.07269C12.0693 2.07266 12.4184 2.14808 12.7382 2.29356C13.0579 2.43904 13.3405 2.65099 13.5657 2.91425C13.8199 3.22076 14.0395 3.55264 14.2208 3.90425C14.4087 4.24237 14.5951 4.59225 14.7753 4.93059L14.8517 5.07409C16.6372 8.42327 18.353 11.8208 19.9517 15.1726L19.9661 15.2028C20.1438 15.5749 20.3274 15.9595 20.5003 16.3384C20.6208 16.6019 20.718 16.8236 20.8007 17.0485C21.0188 17.6012 21.0896 18.1981 21.0065 18.7842Z" fill="#737373"/>
<path d="M31.4419 17.6811C30.8772 17.6811 30.3577 17.5743 29.8833 17.3608C29.409 17.1473 29.0024 16.8483 28.641 16.4638C28.2796 16.0795 28.0085 15.631 27.8052 15.1399C27.6019 14.6273 27.5115 14.0721 27.5115 13.4742C27.5115 12.8762 27.6245 12.2996 27.8278 11.787C28.0311 11.2746 28.3247 10.8261 28.6862 10.4203C29.0476 10.0359 29.4768 9.71558 29.9737 9.50204C30.4707 9.2885 30.9902 9.1817 31.5775 9.1817C32.1422 9.1817 32.6391 9.2885 33.0909 9.52338C33.5427 9.73698 33.9041 10.0573 34.1977 10.463L34.2655 9.41664H36.3437V17.4675H34.2655L34.1977 16.293C33.9041 16.7201 33.5201 17.0618 33.0231 17.3181C32.5714 17.553 32.0293 17.6811 31.4419 17.6811ZM31.9841 15.7592C32.3907 15.7592 32.7521 15.6524 33.0909 15.4601C33.4072 15.2466 33.6556 14.969 33.859 14.6273C34.0397 14.2856 34.13 13.8799 34.13 13.4314C34.13 12.9829 34.0397 12.5772 33.859 12.2355C33.6783 11.8938 33.4072 11.6162 33.0909 11.4027C32.7747 11.1891 32.3907 11.1037 31.9841 11.1037C31.5775 11.1037 31.2161 11.2105 30.8772 11.4027C30.561 11.6162 30.3126 11.8938 30.1093 12.2355C29.9286 12.5772 29.8382 12.9829 29.8382 13.4314C29.8382 13.8799 29.9286 14.2856 30.1093 14.6273C30.29 14.969 30.561 15.2466 30.8772 15.4601C31.2161 15.6524 31.5775 15.7592 31.9841 15.7592ZM39.8901 7.23838C39.8901 7.47328 39.8449 7.68684 39.7319 7.85768C39.619 8.02853 39.4609 8.17801 39.2576 8.28481C39.0543 8.39154 38.8284 8.43428 38.6025 8.43428C38.3766 8.43428 38.1508 8.39154 37.9474 8.28481C37.7441 8.17801 37.586 8.02853 37.4731 7.85768C37.3601 7.66548 37.315 7.47328 37.315 7.23838C37.315 7.00347 37.3601 6.78992 37.4731 6.61907C37.586 6.42687 37.7441 6.29874 37.9474 6.19197C38.1508 6.08519 38.3766 6.04248 38.6025 6.04248C38.8284 6.04248 39.0543 6.08519 39.2576 6.19197C39.4609 6.29874 39.619 6.44823 39.7319 6.61907C39.8223 6.78992 39.8901 6.98211 39.8901 7.23838ZM37.4731 17.4462V9.39524H39.7319V17.4462H37.4731ZM45.7631 11.5094V11.5308C45.6502 11.4881 45.5146 11.4667 45.4016 11.4454C45.2661 11.424 45.1531 11.424 45.0177 11.424C44.3852 11.424 43.9108 11.5948 43.5945 11.9579C43.2557 12.3209 43.0976 12.8335 43.0976 13.4955V17.4462H40.8388V9.39524H42.9169L42.9847 10.6125C43.2106 10.1854 43.4816 9.86505 43.8656 9.63018C44.227 9.39524 44.6562 9.2885 45.1531 9.2885C45.3113 9.2885 45.4694 9.30984 45.6049 9.33117C45.6727 9.35257 45.7179 9.35257 45.7631 9.3739V11.5094ZM46.6666 17.4462V6.08519H48.9255V10.4203C49.2417 10.0359 49.6031 9.73692 50.0549 9.50204C50.5067 9.2885 51.0036 9.16037 51.5683 9.16037C52.133 9.16037 52.6525 9.2671 53.1269 9.48071C53.6013 9.69425 54.0078 9.99319 54.3693 10.3776C54.7307 10.762 55.0017 11.2105 55.205 11.7016C55.4084 12.2142 55.4987 12.7694 55.4987 13.3674C55.4987 13.9653 55.3857 14.5419 55.1825 15.0544C54.9792 15.567 54.6856 16.0154 54.3241 16.4212C53.9627 16.8056 53.5335 17.1259 53.0366 17.3395C52.5396 17.553 52.0201 17.6597 51.4328 17.6597C50.8681 17.6597 50.3711 17.553 49.9193 17.3181C49.4676 17.1045 49.1062 16.7842 48.8125 16.3784L48.7448 17.4249L46.6666 17.4462ZM51.0262 15.7592C51.4328 15.7592 51.7942 15.6524 52.133 15.4601C52.4492 15.2466 52.6977 14.969 52.901 14.6273C53.0817 14.2856 53.1721 13.8799 53.1721 13.4314C53.1721 12.9829 53.0817 12.5772 52.901 12.2355C52.6977 11.8938 52.4492 11.6162 52.133 11.4027C51.8168 11.1891 51.4328 11.1037 51.0262 11.1037C50.6196 11.1037 50.2582 11.2105 49.9193 11.4027C49.6031 11.6162 49.3546 11.8938 49.1513 12.2355C48.9706 12.5772 48.8803 12.9829 48.8803 13.4314C48.8803 13.8799 48.9706 14.2856 49.1513 14.6273C49.332 14.969 49.6031 15.2466 49.9193 15.4601C50.2582 15.6524 50.6196 15.7592 51.0262 15.7592ZM56.3571 17.4462V9.39524H58.4352L58.503 10.4417C58.7514 10.0573 59.0903 9.75832 59.5195 9.52338C59.9486 9.2885 60.4456 9.1817 61.0103 9.1817C61.6428 9.1817 62.1849 9.33117 62.6367 9.60884C63.111 9.88645 63.4725 10.2922 63.721 10.8047C63.9694 11.3172 64.1049 11.9365 64.1049 12.6413V17.4675H61.8461V12.9189C61.8461 12.3637 61.7106 11.9152 61.4395 11.5948C61.1685 11.2746 60.807 11.1037 60.3326 11.1037C59.9938 11.1037 59.7002 11.1678 59.4291 11.3172C59.1806 11.4667 58.9774 11.6589 58.8192 11.9366C58.6611 12.1928 58.5933 12.5131 58.5933 12.8335V17.4462H56.3571ZM65.2343 17.4462V6.08519H67.4932V10.4203C67.8094 10.0359 68.1708 9.73692 68.6226 9.50204C69.0744 9.2885 69.5714 9.16037 70.1361 9.16037C70.7008 9.16037 71.2203 9.2671 71.6947 9.48071C72.169 9.69425 72.5756 9.99319 72.9369 10.3776C73.2987 10.762 73.5694 11.2105 73.7729 11.7016C73.9764 12.2142 74.0662 12.7694 74.0662 13.3674C74.0662 13.9653 73.9538 14.5419 73.7503 15.0544C73.5468 15.567 73.2535 16.0154 72.8917 16.4212C72.5304 16.8056 72.1012 17.1259 71.6043 17.3395C71.1073 17.553 70.5878 17.6597 70.0005 17.6597C69.4358 17.6597 68.9389 17.553 68.4871 17.3181C68.0353 17.1045 67.6739 16.7842 67.3803 16.3784L67.3125 17.4249L65.2343 17.4462ZM69.6165 15.7592C70.0231 15.7592 70.3845 15.6524 70.7233 15.4601C71.0396 15.2466 71.2881 14.969 71.4914 14.6273C71.6721 14.2856 71.7625 13.8799 71.7625 13.4314C71.7625 12.9829 71.6721 12.5772 71.4914 12.2355C71.3107 11.8938 71.0396 11.6162 70.7233 11.4027C70.4071 11.1891 70.0231 11.1037 69.6165 11.1037C69.2099 11.1037 68.8485 11.2105 68.5097 11.4027C68.1935 11.6162 67.945 11.8938 67.7417 12.2355C67.5384 12.5772 67.4706 12.9829 67.4706 13.4314C67.4706 13.8799 67.561 14.2856 67.7417 14.6273C67.9224 14.969 68.1935 15.2466 68.5097 15.4601C68.8485 15.6524 69.1873 15.7592 69.6165 15.7592Z" fill="#737373"/>
</svg>
