<svg width="111" height="20" viewBox="0 0 111 20" fill="none" xmlns="http://www.w3.org/2000/svg">
<path d="M44.3772 3.06386C44.3784 2.76312 44.4715 2.46946 44.6448 2.22001C44.8183 1.97056 45.0641 1.77653 45.3512 1.66246C45.6384 1.54839 45.954 1.51939 46.2581 1.57914C46.5623 1.63889 46.8414 1.7847 47.06 1.99813C47.2787 2.21156 47.4271 2.48303 47.4866 2.77821C47.546 3.07339 47.5138 3.37902 47.394 3.65645C47.2742 3.93388 47.0721 4.17064 46.8134 4.33682C46.5547 4.50299 46.251 4.5911 45.9407 4.59C45.7346 4.58927 45.5307 4.54922 45.3406 4.47213C45.1505 4.39504 44.978 4.28242 44.8328 4.14071C44.6876 3.99899 44.5726 3.83096 44.4945 3.64619C44.4163 3.46142 44.3765 3.26355 44.3772 3.06386ZM70.664 14.7347C70.9755 14.7358 71.2808 14.6472 71.5408 14.4802C71.8002 14.3131 72.0029 14.0752 72.1232 13.7964C72.2429 13.5177 72.275 13.2106 72.2148 12.9142C72.1547 12.6178 72.0052 12.3454 71.7853 12.1314C71.5654 11.9174 71.2848 11.7715 70.979 11.7121C70.6732 11.6528 70.3564 11.6827 70.0684 11.7981C69.7803 11.9134 69.5341 12.109 69.3605 12.3601C69.1876 12.6112 69.0948 12.9065 69.0948 13.2085C69.0948 13.6123 69.2597 13.9997 69.5541 14.2857C69.8479 14.5717 70.2471 14.7332 70.664 14.7347ZM18.6632 5.27815C17.697 5.28801 16.7554 5.57465 15.9569 6.10198C15.1585 6.62931 14.5389 7.37374 14.1763 8.24159C13.8135 9.10944 13.7239 10.0619 13.9186 10.979C14.1133 11.8961 14.5837 12.7369 15.2705 13.3955C15.9573 14.0541 16.8298 14.501 17.7782 14.6801C18.7266 14.8592 19.7085 14.7624 20.6002 14.4018C21.492 14.0413 22.2537 13.4331 22.7895 12.6539C23.3253 11.8747 23.6112 10.9594 23.6113 10.0231C23.6323 9.39019 23.5184 8.75987 23.2765 8.17161C23.0346 7.58341 22.67 7.04986 22.2056 6.60445C21.7411 6.15905 21.1867 5.81135 20.5772 5.58314C19.9676 5.35491 19.316 5.25109 18.6632 5.27815ZM18.6632 12.5481C17.3173 12.5481 16.3724 11.5104 16.3724 10.0231C16.3724 8.53577 17.3116 7.498 18.6632 7.498C20.0147 7.498 20.9539 8.53577 20.9539 10.0231C20.9539 11.5104 20.0434 12.5481 18.6632 12.5481ZM41.3419 10.2617C41.2458 10.0739 41.1202 9.9017 40.9697 9.75114L40.8838 9.66234L40.9754 9.5791C41.1195 9.42804 41.2516 9.26666 41.3706 9.09628L43.8847 5.46129H40.8322L38.9366 8.30824C38.8556 8.39381 38.7545 8.45924 38.6418 8.49881C38.5291 8.53844 38.4082 8.55115 38.2895 8.53577H37.8599V3.1582C37.8599 2.08713 37.167 1.93729 36.4225 1.93729H35.1454V14.6292H37.8542V10.8222H38.1062C38.4155 10.8222 38.6274 10.8555 38.7247 11.022L40.2252 13.7358C40.3553 14.0348 40.5851 14.2831 40.8778 14.441C41.1705 14.5989 41.5093 14.6573 41.8402 14.607H43.9191L42.3671 12.1264L41.3419 10.2617ZM54.4968 5.25595C53.984 5.24494 53.4746 5.33799 53.0011 5.52914C52.5277 5.72029 52.1008 6.00531 51.7478 6.36587L51.5817 6.52681L51.5245 6.30483C51.4363 6.03181 51.2508 5.79811 51.001 5.64558C50.7513 5.49305 50.4536 5.43166 50.1615 5.47239H48.9416V14.6237H51.6447V10.406C51.6362 10.0297 51.6923 9.65452 51.8108 9.29607C51.9356 8.83001 52.2188 8.41829 52.6147 8.12727C53.0105 7.8363 53.496 7.68302 53.9928 7.69223C54.8289 7.69223 55.1382 8.11955 55.1382 9.23502V13.2252C55.1067 13.415 55.1221 13.6094 55.1832 13.7924C55.2443 13.9753 55.3493 14.1416 55.4896 14.2776C55.63 14.4136 55.8015 14.5153 55.9904 14.5745C56.1791 14.6337 56.3797 14.6487 56.5757 14.6181H57.847V8.79661C57.8642 6.48241 56.7016 5.25595 54.4968 5.25595ZM45.975 5.46129H44.7037V14.6292H47.3953V6.85979C47.4259 6.67133 47.4105 6.47856 47.3503 6.29693C47.2901 6.1153 47.1868 5.94987 47.0487 5.8139C46.9106 5.67793 46.7415 5.57521 46.5551 5.51398C46.3687 5.45274 46.17 5.4347 45.975 5.46129ZM29.2351 5.27815C28.2689 5.28801 27.3274 5.57465 26.5289 6.10198C25.7305 6.62931 25.1109 7.37374 24.7482 8.24159C24.3855 9.10944 24.2959 10.0619 24.4906 10.979C24.6853 11.8961 25.1556 12.7369 25.8425 13.3955C26.5293 14.0541 27.4018 14.501 28.3502 14.6801C29.2986 14.8592 30.2805 14.7624 31.1722 14.4018C32.064 14.0413 32.8257 13.4331 33.3615 12.6539C33.8972 11.8747 34.1832 10.9594 34.1832 10.0231C34.2043 9.39019 34.0903 8.75987 33.8485 8.17161C33.6066 7.58341 33.242 7.04986 32.7775 6.60445C32.313 6.15905 31.7587 5.81135 31.1491 5.58314C30.5396 5.35491 29.888 5.25109 29.2351 5.27815ZM29.2351 12.5481C27.8893 12.5481 26.9443 11.5104 26.9443 10.0231C26.9443 8.53577 27.8836 7.498 29.2351 7.498C30.5867 7.498 31.5259 8.53577 31.5259 10.0231C31.5259 11.5104 30.6153 12.5481 29.2351 12.5481ZM86.9228 5.27815C85.9567 5.28801 85.0152 5.57465 84.2168 6.10198C83.4179 6.62931 82.7988 7.37374 82.4358 8.24159C82.0732 9.10944 81.9833 10.0619 82.178 10.979C82.3728 11.8961 82.8435 12.7369 83.5302 13.3955C84.2168 14.0541 85.0896 14.501 86.038 14.6801C86.9864 14.8592 87.968 14.7624 88.8597 14.4018C89.7514 14.0413 90.5136 13.4331 91.0491 12.6539C91.5852 11.8747 91.8709 10.9594 91.8709 10.0231C91.8921 9.39019 91.7782 8.75987 91.5359 8.17161C91.2942 7.58341 90.93 7.04986 90.465 6.60445C90.0005 6.15905 89.4461 5.81135 88.8368 5.58314C88.2274 5.35491 87.5757 5.25109 86.9228 5.27815ZM86.9228 12.5481C85.577 12.5481 84.6321 11.5104 84.6321 10.0231C84.6321 8.53577 85.5713 7.498 86.9228 7.498C88.2744 7.498 89.2136 8.53577 89.2136 10.0231C89.2136 11.5104 88.303 12.5481 86.9228 12.5481ZM66.7926 5.43909C66.5726 5.41848 66.3516 5.4599 66.1551 5.55836C65.9593 5.65682 65.7966 5.80813 65.6873 5.99405L65.6185 6.13279L65.4925 6.02735C64.7956 5.4743 63.9125 5.18976 63.0128 5.2282C60.4986 5.2282 58.7977 7.06512 58.7977 9.79553C58.7977 12.5259 60.5559 14.4295 63.0643 14.4295C63.8037 14.4623 64.5333 14.2553 65.1375 13.8412L65.3436 13.6858V13.9411C65.3436 15.1676 64.5247 15.8446 63.0529 15.8446C62.4349 15.8363 61.8227 15.7256 61.2431 15.5172C61.1321 15.4624 61.0094 15.4337 60.8849 15.4332C60.7603 15.4328 60.6374 15.4607 60.5259 15.5146C60.4146 15.5686 60.3178 15.6472 60.2434 15.744C60.169 15.8408 60.1192 15.9532 60.0977 16.0721L59.5766 17.3374L59.7656 17.4318C60.7903 17.9254 61.9201 18.18 63.0643 18.1754C65.3551 18.1754 68.0296 17.0322 68.0296 13.8301V5.43909H66.7926ZM63.5396 12.1486C62.0735 12.1486 61.5467 10.8999 61.5467 9.73449C61.5467 9.21838 61.6784 7.51465 63.3965 7.51465C64.2498 7.51465 65.3952 7.74773 65.3952 9.78998C65.3952 11.7434 64.3872 12.1486 63.5396 12.1486ZM11.4415 8.11955L11.0463 7.90867L11.3899 7.63119C11.7394 7.3334 12.0171 6.96479 12.2031 6.55143C12.3892 6.13807 12.4791 5.69011 12.4666 5.2393C12.4666 3.24145 10.8688 1.95394 8.40617 1.95394H5.26779C4.91619 1.96668 4.58303 2.1096 4.33691 2.35325C4.0908 2.5969 3.95048 2.92274 3.94486 3.26364V14.5848H8.45771C11.2009 14.5848 12.9763 13.1364 12.9763 10.8888C12.9994 10.3364 12.8692 9.7881 12.5992 9.30101C12.3293 8.81392 11.9295 8.40597 11.4415 8.11955ZM6.44755 4.91743C6.44755 4.32917 6.70526 4.05169 7.2665 4.01839H8.4119C8.6186 4.00042 8.82685 4.02674 9.02187 4.09549C9.21691 4.16424 9.39393 4.27373 9.54041 4.4162C9.68689 4.55867 9.7992 4.73062 9.86941 4.91986C9.93962 5.1091 9.96602 5.311 9.94672 5.51123C9.96929 5.71452 9.94621 5.92013 9.87891 6.11392C9.81168 6.3077 9.70184 6.48507 9.55708 6.6338C9.4123 6.78253 9.23599 6.8991 9.04028 6.97547C8.84456 7.05184 8.63409 7.08622 8.42335 7.07622H6.44755V4.91743ZM8.64097 12.4427H6.44755V9.90098C6.44755 9.34602 6.6709 9.07409 7.14624 9.00749H8.64097C9.09365 9.03241 9.51932 9.22426 9.83069 9.54364C10.1421 9.86302 10.3155 10.2857 10.3155 10.7251C10.3155 11.1645 10.1421 11.5872 9.83069 11.9065C9.51932 12.2259 9.09365 12.4177 8.64097 12.4427ZM103.898 5.2837C103.341 5.28574 102.792 5.40899 102.292 5.64434C101.791 5.87969 101.351 6.22112 101.005 6.64335L100.811 6.88754L100.656 6.61561C100.408 6.17997 100.036 5.82273 99.584 5.58655C99.1322 5.35037 98.6196 5.24523 98.1076 5.2837C97.6403 5.29108 97.1787 5.39086 96.7526 5.57694C96.3259 5.76301 95.9434 6.03147 95.6278 6.36587L95.3758 6.63225L95.2785 6.28263C95.1886 6.02265 95.0082 5.80138 94.7671 5.65738C94.5265 5.51338 94.2413 5.45577 93.9613 5.49459H92.8159V14.6237H95.3701V10.5947C95.3735 10.2356 95.4199 9.87806 95.5076 9.52915C95.7538 8.55242 96.4296 7.50355 97.5635 7.60899C98.2622 7.67559 98.6058 8.19725 98.6058 9.21283V14.6237H101.194V10.5947C101.184 10.2198 101.232 9.84554 101.338 9.48476C101.544 8.55797 102.248 7.60344 103.342 7.60344C104.132 7.60344 104.424 8.03631 104.424 9.20728V13.2918C104.424 14.213 104.848 14.6237 105.799 14.6237H107.03V8.79661C107.03 6.46577 105.971 5.2837 103.898 5.2837ZM80.5086 11.4549C79.8329 12.1402 78.9183 12.5576 77.943 12.6258C77.5896 12.6465 77.2351 12.5948 76.9035 12.4739C76.5719 12.353 76.2707 12.1658 76.0187 11.9244C75.7667 11.683 75.5703 11.3928 75.442 11.0728C75.3137 10.7529 75.2564 10.4103 75.2742 10.0675C75.2444 9.72916 75.2885 9.38847 75.4036 9.06787C75.5193 8.74721 75.7031 8.45386 75.9437 8.20702C76.1848 7.96022 76.4763 7.76549 76.8004 7.63563C77.124 7.50577 77.4722 7.44372 77.8227 7.4536C78.3038 7.4536 78.8535 7.62009 78.9394 7.90312V7.95307C78.9956 8.14652 79.1158 8.3169 79.2813 8.4381C79.4463 8.55936 79.6484 8.62485 79.8558 8.62457H81.2589V7.4314C81.2589 5.85531 79.1914 5.2837 77.8227 5.2837C74.8504 5.2837 72.6684 7.29821 72.6684 10.0619C72.6684 12.8256 74.8046 14.8457 77.7425 14.8457C78.4973 14.838 79.2424 14.6804 79.9319 14.3826C80.6215 14.0848 81.2411 13.6531 81.7514 13.1142L80.6862 11.2995L80.5086 11.4549Z" fill="#737373"/>
</svg>
